<svg width="35" height="28" viewBox="0 0 35 28" fill="none" xmlns="http://www.w3.org/2000/svg">
<path d="M15.5169 0.731987C15.0481 0.263296 14.4123 0 13.7494 0C13.0865 0 12.4507 0.263296 11.9818 0.731987L0.731501 11.9823C0.262809 12.4512 -0.000487312 13.0869 -0.000487312 13.7499C-0.000487312 14.4128 0.262809 15.0486 0.731501 15.5174L11.9818 26.7677C12.4533 27.2232 13.0849 27.4752 13.7404 27.4695C14.3959 27.4638 15.0229 27.2008 15.4865 26.7373C15.95 26.2738 16.2129 25.6467 16.2186 24.9912C16.2243 24.3357 15.9723 23.7042 15.5169 23.2326L8.74923 16.2499H32.4999C33.163 16.2499 33.7989 15.9865 34.2677 15.5177C34.7366 15.0488 35 14.4129 35 13.7499C35 13.0868 34.7366 12.4509 34.2677 11.9821C33.7989 11.5132 33.163 11.2498 32.4999 11.2498H8.74923L15.5169 4.26709C15.9856 3.79826 16.2489 3.16247 16.2489 2.49954C16.2489 1.83661 15.9856 1.20082 15.5169 0.731987Z" fill="#F8F7ED"/>
</svg>
