<svg width="17" height="18" viewBox="0 0 17 18" fill="none" xmlns="http://www.w3.org/2000/svg">
<mask id="mask0_529_414" style="mask-type:luminance" maskUnits="userSpaceOnUse" x="0" y="0" width="17" height="18">
<path d="M8.5 16.5C9.48509 16.5012 10.4607 16.3078 11.3708 15.9308C12.2809 15.5538 13.1076 15.0007 13.8032 14.3032C14.5007 13.6076 15.0538 12.7809 15.4308 11.8708C15.8078 10.9607 16.0012 9.98509 16 9C16.0012 8.01491 15.8078 7.03929 15.4308 6.12919C15.0538 5.21908 14.5007 4.39244 13.8032 3.69675C13.1076 2.99931 12.2809 2.44621 11.3708 2.06922C10.4607 1.69223 9.48509 1.49879 8.5 1.50001C7.51491 1.49879 6.53929 1.69223 5.62919 2.06922C4.71908 2.44621 3.89244 2.99931 3.19675 3.69675C2.49931 4.39244 1.94621 5.21908 1.56922 6.12919C1.19223 7.03929 0.998791 8.01491 1.00001 9C0.998791 9.98509 1.19223 10.9607 1.56922 11.8708C1.94621 12.7809 2.49931 13.6076 3.19675 14.3032C3.89244 15.0007 4.71908 15.5538 5.62919 15.9308C6.53929 16.3078 7.51491 16.5012 8.5 16.5Z" fill="white" stroke="white" stroke-width="1.5" stroke-linejoin="round"/>
<path d="M5.5 9L7.75 11.25L12.25 6.75" stroke="black" stroke-width="1.5" stroke-linecap="round" stroke-linejoin="round"/>
</mask>
<g mask="url(#mask0_529_414)">
<path d="M-0.5 0H17.5V18H-0.5V0Z" fill="#F8F7ED"/>
</g>
</svg>
