<svg width="26" height="26" viewBox="0 0 26 26" fill="none" xmlns="http://www.w3.org/2000/svg">
<path d="M13 25.5C9.80555 25.5 7.02222 24.4412 4.65 22.3236C2.47179 20.3792 1.14685 17.9902 0.675173 15.1566C0.607273 14.7487 0.93075 14.3889 1.34427 14.3889H2.80944C3.15717 14.3889 3.44872 14.6468 3.51444 14.9883C3.92641 17.1287 4.96465 18.9196 6.62917 20.3611C8.44676 21.9352 10.5704 22.7222 13 22.7222C15.7083 22.7222 18.006 21.7792 19.893 19.893C21.7801 18.0069 22.7231 15.7093 22.7222 13C22.7213 10.2907 21.7782 7.99352 19.893 6.10833C18.0079 4.22315 15.7102 3.27963 13 3.27778C11.4028 3.27778 9.90972 3.64815 8.52083 4.38889C7.13194 5.12963 5.96296 6.14815 5.01389 7.44444H8.83333V10.2222H0.5V1.88889H3.27778V5.15278C4.45833 3.6713 5.89954 2.52546 7.60139 1.71528C9.30324 0.905093 11.1028 0.5 13 0.5C14.7361 0.5 16.3625 0.830093 17.8792 1.49028C19.3958 2.15046 20.7153 3.0412 21.8375 4.1625C22.9597 5.28379 23.8509 6.60324 24.5111 8.12083C25.1713 9.63842 25.5009 11.2648 25.5 13C25.4991 14.7352 25.1694 16.3616 24.5111 17.8792C23.8528 19.3968 22.9616 20.7162 21.8375 21.8375C20.7134 22.9588 19.394 23.85 17.8792 24.5111C16.3643 25.1722 14.738 25.5018 13 25.5ZM17.3799 18.3423C17.1087 18.6135 16.669 18.6135 16.3978 18.3423L11.6111 13.5556V6.75C11.6111 6.36647 11.922 6.05555 12.3056 6.05555H13.6944C14.078 6.05555 14.3889 6.36647 14.3889 6.75V12.4444L18.3423 16.3978C18.6135 16.669 18.6135 17.1087 18.3423 17.3799L17.3799 18.3423Z" fill="#FF5252"/>
</svg>
