<svg width="27" height="27" viewBox="0 0 27 27" fill="none" xmlns="http://www.w3.org/2000/svg">
<path d="M18.672 13.584L25.7298 20.6418C26.5108 21.4228 26.5108 22.6892 25.7298 23.4702L23.4702 25.7298C22.6892 26.5108 21.4228 26.5108 20.6418 25.7298L13.584 18.672L6.50221 25.7538C5.72116 26.5348 4.45483 26.5348 3.67379 25.7538L1.41421 23.4942C0.633163 22.7132 0.633165 21.4468 1.41421 20.6658L8.496 13.584L1.41421 6.50221C0.633164 5.72116 0.633165 4.45483 1.41421 3.67379L3.67378 1.41421C4.45483 0.633166 5.72116 0.633165 6.50221 1.41421L13.584 8.496L20.6658 1.43422C21.4472 0.655052 22.7119 0.655947 23.4922 1.43621L25.7518 3.69579C26.5336 4.47762 26.5327 5.74549 25.7498 6.52621L18.672 13.584Z" fill="#F8F7ED"/>
</svg>
