<svg width="20" height="20" viewBox="0 0 20 20" fill="none" xmlns="http://www.w3.org/2000/svg">
<path fill-rule="evenodd" clip-rule="evenodd" d="M15.1501 13.3677L19.2077 17.476C19.6682 17.9423 19.666 18.6928 19.2028 19.1564C18.7372 19.6223 17.9822 19.6224 17.5165 19.1567L13.3216 14.9619C11.6419 16.2269 9.54535 16.8088 7.4539 16.5904C5.36245 16.372 3.43133 15.3696 2.04917 13.7848C0.667007 12.2001 -0.0636101 10.1506 0.00434889 8.04889C0.0723079 5.94717 0.933799 3.94919 2.41545 2.45702C3.89711 0.964858 5.88895 0.089268 7.99014 0.00645779C10.0913 -0.0763525 12.1459 0.639763 13.7404 2.01069C15.3349 3.38162 16.351 5.30561 16.5841 7.39546C16.8173 9.48532 16.4032 11.6791 15.1501 13.3677ZM14.258 8.31839C14.258 6.74268 13.632 5.23151 12.5178 4.11732C11.4036 3.00313 9.89246 2.37718 8.31675 2.37718C6.74104 2.37718 5.22987 3.00313 4.11568 4.11732C3.00149 5.23151 2.37554 6.74268 2.37554 8.31839C2.37554 9.8941 3.00149 11.4053 4.11568 12.5195C5.22987 13.6337 6.74104 14.2596 8.31675 14.2596C9.89246 14.2596 11.4036 13.6337 12.5178 12.5195C13.632 11.4053 14.258 9.8941 14.258 8.31839Z" fill="#F8F7ED"/>
</svg>
